<mxfile host="app.diagrams.net" modified="2023-11-07T03:34:48.921Z" agent="Mozilla/5.0 (Windows NT 10.0; Win64; x64) AppleWebKit/537.36 (KHTML, like Gecko) Chrome/119.0.0.0 Safari/537.36" etag="34MSKjcJdxlVDhy5my-w" version="22.0.8" type="device">
  <diagram name="Page-1" id="tDHuhv7dV6Yr0yRqhIWP">
    <mxGraphModel dx="1221" dy="709" grid="1" gridSize="10" guides="1" tooltips="1" connect="1" arrows="1" fold="1" page="1" pageScale="1" pageWidth="827" pageHeight="1169" math="0" shadow="0">
      <root>
        <mxCell id="0" />
        <mxCell id="1" parent="0" />
        <mxCell id="ikfc7IFNwjfDXHKksEY_-1" style="edgeStyle=orthogonalEdgeStyle;rounded=0;orthogonalLoop=1;jettySize=auto;html=1;startArrow=circlePlus;startFill=0;endArrow=none;endFill=0;" edge="1" parent="1" source="ikfc7IFNwjfDXHKksEY_-3">
          <mxGeometry relative="1" as="geometry">
            <mxPoint x="255" y="325" as="targetPoint" />
          </mxGeometry>
        </mxCell>
        <mxCell id="ikfc7IFNwjfDXHKksEY_-2" style="edgeStyle=orthogonalEdgeStyle;rounded=0;orthogonalLoop=1;jettySize=auto;html=1;endArrow=open;endFill=0;dashed=1;dashPattern=12 12;entryX=0.5;entryY=1;entryDx=0;entryDy=0;entryPerimeter=0;exitX=0.498;exitY=0.159;exitDx=0;exitDy=0;exitPerimeter=0;" edge="1" parent="1" source="ikfc7IFNwjfDXHKksEY_-3" target="ikfc7IFNwjfDXHKksEY_-7">
          <mxGeometry relative="1" as="geometry">
            <mxPoint x="435" y="206" as="targetPoint" />
            <mxPoint x="419.74" y="302" as="sourcePoint" />
            <Array as="points">
              <mxPoint x="420" y="192" />
            </Array>
          </mxGeometry>
        </mxCell>
        <mxCell id="ikfc7IFNwjfDXHKksEY_-3" value="CofeeShop System" style="shape=folder;fontStyle=1;spacingTop=10;tabWidth=40;tabHeight=14;tabPosition=left;html=1;whiteSpace=wrap;" vertex="1" parent="1">
          <mxGeometry x="345" y="275" width="150" height="100" as="geometry" />
        </mxCell>
        <mxCell id="ikfc7IFNwjfDXHKksEY_-4" style="edgeStyle=orthogonalEdgeStyle;rounded=0;orthogonalLoop=1;jettySize=auto;html=1;endArrow=none;endFill=0;" edge="1" parent="1" source="ikfc7IFNwjfDXHKksEY_-5">
          <mxGeometry relative="1" as="geometry">
            <mxPoint x="255" y="332" as="targetPoint" />
          </mxGeometry>
        </mxCell>
        <mxCell id="ikfc7IFNwjfDXHKksEY_-5" value="Catalogue" style="html=1;whiteSpace=wrap;" vertex="1" parent="1">
          <mxGeometry x="125" y="302" width="100" height="20" as="geometry" />
        </mxCell>
        <mxCell id="ikfc7IFNwjfDXHKksEY_-6" style="edgeStyle=orthogonalEdgeStyle;rounded=0;orthogonalLoop=1;jettySize=auto;html=1;endArrow=none;endFill=0;exitX=1.01;exitY=0.511;exitDx=0;exitDy=0;exitPerimeter=0;" edge="1" parent="1" source="ikfc7IFNwjfDXHKksEY_-20">
          <mxGeometry relative="1" as="geometry">
            <mxPoint x="255" y="332" as="targetPoint" />
            <mxPoint x="225" y="342" as="sourcePoint" />
            <Array as="points">
              <mxPoint x="255" y="361" />
            </Array>
          </mxGeometry>
        </mxCell>
        <mxCell id="ikfc7IFNwjfDXHKksEY_-7" value="" style="shape=folder;fontStyle=1;spacingTop=10;tabWidth=90;tabHeight=20;tabPosition=left;html=1;whiteSpace=wrap;" vertex="1" parent="1">
          <mxGeometry x="315" y="55" width="210" height="124" as="geometry" />
        </mxCell>
        <mxCell id="ikfc7IFNwjfDXHKksEY_-8" value="Procuremement" style="text;html=1;align=center;verticalAlign=middle;resizable=0;points=[];autosize=1;strokeColor=none;fillColor=none;" vertex="1" parent="1">
          <mxGeometry x="304" y="50" width="110" height="30" as="geometry" />
        </mxCell>
        <mxCell id="ikfc7IFNwjfDXHKksEY_-9" value="Product" style="shape=folder;fontStyle=1;spacingTop=10;tabWidth=40;tabHeight=14;tabPosition=left;html=1;whiteSpace=wrap;" vertex="1" parent="1">
          <mxGeometry x="325" y="115" width="80" height="50" as="geometry" />
        </mxCell>
        <mxCell id="ikfc7IFNwjfDXHKksEY_-10" value="CoffeeProduct" style="shape=folder;fontStyle=1;spacingTop=10;tabWidth=40;tabHeight=14;tabPosition=left;html=1;whiteSpace=wrap;" vertex="1" parent="1">
          <mxGeometry x="414" y="115" width="91" height="50" as="geometry" />
        </mxCell>
        <mxCell id="ikfc7IFNwjfDXHKksEY_-11" value="" style="shape=folder;fontStyle=1;spacingTop=10;tabWidth=60;tabHeight=10;tabPosition=left;html=1;whiteSpace=wrap;" vertex="1" parent="1">
          <mxGeometry x="623" y="150" width="165" height="90" as="geometry" />
        </mxCell>
        <mxCell id="ikfc7IFNwjfDXHKksEY_-12" value="Data&amp;nbsp;" style="text;html=1;align=center;verticalAlign=middle;resizable=0;points=[];autosize=1;strokeColor=none;fillColor=none;rotation=0;" vertex="1" parent="1">
          <mxGeometry x="615" y="145" width="50" height="30" as="geometry" />
        </mxCell>
        <mxCell id="ikfc7IFNwjfDXHKksEY_-13" value="Order DB" style="shape=folder;fontStyle=1;spacingTop=10;tabWidth=40;tabHeight=14;tabPosition=left;html=1;whiteSpace=wrap;" vertex="1" parent="1">
          <mxGeometry x="630" y="175" width="70" height="50" as="geometry" />
        </mxCell>
        <mxCell id="ikfc7IFNwjfDXHKksEY_-14" style="edgeStyle=orthogonalEdgeStyle;rounded=0;orthogonalLoop=1;jettySize=auto;html=1;entryX=0.002;entryY=0.446;entryDx=0;entryDy=0;entryPerimeter=0;endArrow=open;endFill=0;dashed=1;dashPattern=12 12;startArrow=none;startFill=0;" edge="1" parent="1" source="ikfc7IFNwjfDXHKksEY_-3" target="ikfc7IFNwjfDXHKksEY_-11">
          <mxGeometry relative="1" as="geometry">
            <Array as="points">
              <mxPoint x="610" y="325" />
            </Array>
          </mxGeometry>
        </mxCell>
        <mxCell id="ikfc7IFNwjfDXHKksEY_-15" value="Analytics Systems" style="shape=folder;fontStyle=1;spacingTop=10;tabWidth=40;tabHeight=14;tabPosition=left;html=1;whiteSpace=wrap;" vertex="1" parent="1">
          <mxGeometry x="640.5" y="315" width="130" height="70" as="geometry" />
        </mxCell>
        <mxCell id="ikfc7IFNwjfDXHKksEY_-16" style="edgeStyle=orthogonalEdgeStyle;rounded=0;orthogonalLoop=1;jettySize=auto;html=1;entryX=0.5;entryY=1;entryDx=0;entryDy=0;entryPerimeter=0;exitX=0.501;exitY=0.214;exitDx=0;exitDy=0;exitPerimeter=0;endArrow=open;endFill=0;dashed=1;dashPattern=12 12;" edge="1" parent="1" source="ikfc7IFNwjfDXHKksEY_-15" target="ikfc7IFNwjfDXHKksEY_-11">
          <mxGeometry relative="1" as="geometry" />
        </mxCell>
        <mxCell id="ikfc7IFNwjfDXHKksEY_-17" value="&lt;font style=&quot;font-size: 10px;&quot;&gt;+Catalogue&lt;br&gt;+Goods&lt;br&gt;+Product&lt;/font&gt;" style="shape=folder;fontStyle=1;spacingTop=10;tabWidth=40;tabHeight=14;tabPosition=left;html=1;whiteSpace=wrap;" vertex="1" parent="1">
          <mxGeometry x="708" y="175" width="70" height="60" as="geometry" />
        </mxCell>
        <mxCell id="ikfc7IFNwjfDXHKksEY_-18" value="Planning Systems" style="shape=folder;fontStyle=1;spacingTop=10;tabWidth=40;tabHeight=14;tabPosition=left;html=1;whiteSpace=wrap;" vertex="1" parent="1">
          <mxGeometry x="91" y="94" width="140" height="63" as="geometry" />
        </mxCell>
        <mxCell id="ikfc7IFNwjfDXHKksEY_-19" style="edgeStyle=orthogonalEdgeStyle;rounded=0;orthogonalLoop=1;jettySize=auto;html=1;entryX=-0.022;entryY=0.547;entryDx=0;entryDy=0;entryPerimeter=0;dashed=1;dashPattern=12 12;endArrow=open;endFill=0;" edge="1" parent="1" source="ikfc7IFNwjfDXHKksEY_-18">
          <mxGeometry relative="1" as="geometry">
            <mxPoint x="316" y="125" as="targetPoint" />
          </mxGeometry>
        </mxCell>
        <mxCell id="ikfc7IFNwjfDXHKksEY_-20" value="Order Processing" style="shape=folder;fontStyle=1;spacingTop=10;tabWidth=36;tabHeight=10;tabPosition=left;html=1;whiteSpace=wrap;" vertex="1" parent="1">
          <mxGeometry x="119" y="335" width="106" height="50" as="geometry" />
        </mxCell>
        <mxCell id="ikfc7IFNwjfDXHKksEY_-21" value="&lt;font style=&quot;font-size: 7px;&quot;&gt;Database&lt;br&gt;&lt;/font&gt;" style="text;html=1;align=center;verticalAlign=middle;resizable=0;points=[];autosize=1;strokeColor=none;fillColor=none;" vertex="1" parent="1">
          <mxGeometry x="703" y="167" width="50" height="30" as="geometry" />
        </mxCell>
        <mxCell id="ikfc7IFNwjfDXHKksEY_-22" value="На диаграмме показаны составляющие элементы пакета CofeeShop System&lt;br&gt;пакет&amp;nbsp;Order Processing и клас&amp;nbsp;Catalogue отображает принадлежность .&lt;br&gt;&amp;nbsp;Главная по функциональности часть&amp;nbsp;CofeeShop System&lt;br&gt;&amp;nbsp;взаимодействует с пакетом закупок, Procuremement, &lt;br&gt;который осуществляет поставку продуктов (Product) и&lt;br&gt;&amp;nbsp;и кофе продукты (CoffeeProduct).&lt;br&gt;Система планирования Planning Systems взаимодействует с данным пакетом.&lt;br&gt;Все данные о заказе и о продукте хранятся в пакете Data&lt;br&gt;доступ к которому имеют&amp;nbsp;CofeeShop System и&amp;nbsp;Analytics Systems&lt;br&gt;&amp;nbsp;" style="text;html=1;align=center;verticalAlign=middle;resizable=0;points=[];autosize=1;strokeColor=none;fillColor=none;" vertex="1" parent="1">
          <mxGeometry x="40" y="450" width="470" height="160" as="geometry" />
        </mxCell>
      </root>
    </mxGraphModel>
  </diagram>
</mxfile>
